<svg width="160" height="36" viewBox="0 0 160 36" fill="none" xmlns="http://www.w3.org/2000/svg">
<path d="M10.0156 21.8735C8.62861 21.8735 7.33083 21.6014 6.12228 21.0548C4.91372 20.509 3.84873 19.7406 2.9273 18.748C2.00588 17.7563 1.28805 16.6102 0.77299 15.3106C0.257934 14.0111 0 12.588 0 11.0399C0 9.59168 0.261989 8.22793 0.78759 6.94784C1.31238 5.66857 2.03589 4.53712 2.95732 3.55512C3.87874 2.57313 4.9632 1.80963 6.2115 1.26381C7.4598 0.718794 8.80706 0.445068 10.2533 0.445068C12.2543 0.445068 13.9625 0.861747 15.3795 1.6951C16.7957 2.52846 17.8607 3.64934 18.5745 5.05776L15.5133 7.31904C14.9983 6.268 14.2553 5.46389 13.2844 4.90832C12.3135 4.35274 11.2639 4.07496 10.134 4.07496C9.24262 4.07496 8.42502 4.2634 7.68204 4.64028C6.93907 5.01716 6.29991 5.53293 5.76539 6.18759C5.23086 6.84225 4.8245 7.59682 4.5471 8.44967C4.26969 9.30252 4.13099 10.2057 4.13099 11.1577C4.13099 12.1697 4.28429 13.1022 4.59171 13.955C4.89831 14.8079 5.33469 15.5576 5.89922 16.2017C6.46375 16.8466 7.12238 17.3477 7.87509 17.7043C8.6278 18.0617 9.46 18.2396 10.3717 18.2396C11.461 18.2396 12.4911 17.9618 13.462 17.4062C14.4321 16.8515 15.3438 16.0376 16.1963 14.9663V19.0429C14.4329 20.9281 12.3727 21.8703 10.0148 21.8703L10.0156 21.8735ZM15.9002 13.8681H11.6508V10.8628H19.2882V21.7249H15.9002V13.8681Z" fill="#009247"/>
<path d="M47.6076 22.022C46.3398 22.022 45.2051 21.806 44.205 21.3747C43.2041 20.9434 42.3475 20.3545 41.6346 19.6089C40.9216 18.8632 40.3814 18.0153 40.0148 17.0633C39.6482 16.1122 39.4648 15.1058 39.4648 14.0467C39.4648 12.9875 39.6482 11.9178 40.0148 10.9561C40.3814 9.99523 40.9159 9.14644 41.6192 8.41056C42.3224 7.67467 43.1797 7.09635 44.1896 6.67399C45.2002 6.25244 46.3293 6.04126 47.5776 6.04126C48.8259 6.04126 50.0093 6.25244 51.0102 6.67399C52.0103 7.09635 52.8677 7.67548 53.5806 8.41056C54.2936 9.14644 54.8387 9.99442 55.215 10.9561C55.5914 11.9178 55.7796 12.9477 55.7796 14.0467C55.7796 15.1456 55.5914 16.1114 55.215 17.0633C54.8387 18.0153 54.2936 18.8641 53.5806 19.6089C52.8677 20.3545 52.0103 20.9434 51.0102 21.3747C50.0093 21.806 48.8754 22.022 47.6076 22.022ZM43.5358 14.0459C43.5358 14.9223 43.7143 15.7101 44.0703 16.4111C44.4272 17.1121 44.9171 17.6571 45.5417 18.0461C46.1654 18.4352 46.8541 18.6293 47.6068 18.6293C48.3595 18.6293 49.0433 18.4295 49.6573 18.0307C50.2713 17.6319 50.7612 17.0869 51.1286 16.3965C51.4953 15.7053 51.6786 14.9125 51.6786 14.0174C51.6786 13.1223 51.4953 12.358 51.1286 11.6676C50.762 10.9764 50.2713 10.4314 49.6573 10.0326C49.0433 9.63378 48.3498 9.43397 47.5768 9.43397C46.8038 9.43397 46.1403 9.63378 45.5263 10.0326C44.9123 10.4314 44.4264 10.9764 44.0703 11.6676C43.7135 12.3588 43.5358 13.1516 43.5358 14.0467V14.0459Z" fill="#009247"/>
<path d="M57.4735 14.0168C57.4735 12.5458 57.7703 11.2016 58.3649 9.98484C58.9594 8.76811 59.7811 7.80723 60.8315 7.10139C61.881 6.39475 63.0799 6.04142 64.4271 6.04142C65.5562 6.04142 66.5863 6.32408 67.5175 6.8894C68.4486 7.45472 69.1616 8.17436 69.6572 9.0467V0H73.6689V17.26C73.6689 17.6767 73.7379 17.974 73.8766 18.1527C74.0153 18.3314 74.2529 18.4402 74.5896 18.48V21.7241C73.8766 21.863 73.3121 21.9223 72.896 21.9028C72.183 21.9223 71.5933 21.7542 71.1277 21.3968C70.6622 21.0394 70.3994 20.574 70.3401 19.9981L70.2809 19.0161C69.7058 19.9884 68.9288 20.7324 67.9482 21.2481C66.9675 21.7639 65.9423 22.0222 64.8724 22.0222C63.8026 22.0222 62.8171 21.8208 61.9151 21.4195C61.0132 21.0175 60.2313 20.4481 59.5678 19.7122C58.9035 18.9763 58.3884 18.1226 58.0226 17.1512C57.656 16.1806 57.4727 15.1352 57.4727 14.0168H57.4735ZM69.688 16.0311V12.4118C69.4901 11.8473 69.173 11.3413 68.7374 10.8937C68.301 10.4462 67.816 10.0912 67.2814 9.82808C66.7469 9.56572 66.2116 9.43414 65.6771 9.43414C65.063 9.43414 64.5074 9.56085 64.0127 9.81346C63.5171 10.0661 63.0864 10.4072 62.7197 10.8352C62.3531 11.2633 62.0757 11.7547 61.8875 12.3095C61.6994 12.8642 61.6053 13.4531 61.6053 14.0753C61.6053 14.6974 61.714 15.3164 61.9322 15.8703C62.1503 16.4251 62.4472 16.9116 62.8236 17.3299C63.1999 17.7482 63.6558 18.0699 64.1903 18.2932C64.7256 18.5174 65.2999 18.6287 65.9139 18.6287C66.3097 18.6287 66.6966 18.5653 67.073 18.4386C67.4493 18.3119 67.8111 18.1324 68.1574 17.8985C68.5038 17.6654 68.8161 17.3924 69.0935 17.0814C69.3709 16.7703 69.5688 16.4194 69.688 16.0303V16.0311Z" fill="#009247"/>
<path d="M76.4941 10.9814C76.4941 9.67209 76.7269 8.3977 77.1925 7.15741C77.6581 5.91793 78.341 4.79136 79.243 3.78012C80.1441 2.76808 81.2383 1.9599 82.5272 1.35478C83.8152 0.749666 85.2712 0.44751 86.8958 0.44751C88.8377 0.44751 90.5167 0.874747 91.9329 1.72678C93.3491 2.57963 94.3946 3.69078 95.0678 5.06021L91.9474 7.23295C91.5906 6.43939 91.125 5.81478 90.5507 5.3583C89.9756 4.90182 89.3568 4.57449 88.6933 4.37631C88.029 4.17812 87.3906 4.07903 86.7766 4.07903C85.7465 4.07903 84.8494 4.28696 84.087 4.70364C83.3245 5.12032 82.6902 5.66614 82.1849 6.3403C81.6796 7.01527 81.2975 7.76902 81.0404 8.60238C80.7825 9.43573 80.6543 10.2788 80.6543 11.1317C80.6543 12.0446 80.8028 12.9324 81.1004 13.795C81.3973 14.6576 81.8183 15.4219 82.3633 16.0863C82.9076 16.7516 83.5622 17.2771 84.3246 17.6637C85.0871 18.0503 85.9241 18.2436 86.8358 18.2436C87.4693 18.2436 88.1239 18.1348 88.7971 17.9163C89.4703 17.6986 90.0949 17.351 90.6691 16.875C91.2434 16.399 91.709 15.7736 92.0659 15.0004L95.3947 16.9644C94.9583 18.0162 94.2697 18.9089 93.3296 19.6423C92.3887 20.3766 91.3383 20.9322 90.1792 21.309C89.0201 21.6859 87.8659 21.8743 86.7174 21.8743C85.2112 21.8743 83.8396 21.5616 82.6018 20.937C81.3632 20.3124 80.2885 19.479 79.3776 18.4369C78.466 17.3957 77.7579 16.2252 77.2525 14.9256C76.7472 13.6261 76.495 12.3119 76.495 10.9822L76.4941 10.9814Z" fill="#2C3640"/>
<path d="M97.741 0.000732422H101.723V16.7491C101.723 17.4858 101.842 17.9788 102.08 18.2273C102.317 18.4759 102.634 18.6002 103.03 18.6002C103.387 18.6002 103.729 18.5604 104.056 18.4816C104.382 18.4028 104.674 18.2931 104.932 18.1542L105.467 21.2196C104.932 21.4779 104.313 21.6761 103.609 21.815C102.906 21.9539 102.257 22.0229 101.663 22.0229C100.414 22.0229 99.4484 21.6899 98.7655 21.0231C98.0817 20.357 97.7402 19.4173 97.7402 18.2038V0.00154545L97.741 0.000732422Z" fill="#2C3640"/>
<path d="M111.144 0.000732422H107.191V3.92872H111.144V0.000732422Z" fill="#009247"/>
<path d="M111.144 6.13086H107.191V21.725H111.144V6.13086Z" fill="#2C3640"/>
<path d="M122.02 22.022C120.732 22.022 119.588 21.8109 118.588 21.3893C117.587 20.9678 116.73 20.3789 116.017 19.6235C115.304 18.8681 114.759 18.0096 114.383 17.0487C114.007 16.087 113.818 15.0766 113.818 14.0166C113.818 12.5846 114.145 11.2599 114.799 10.044C115.453 8.82804 116.394 7.85661 117.622 7.13047C118.851 6.40433 120.306 6.04126 121.991 6.04126C123.676 6.04126 125.121 6.40839 126.33 7.14265C127.538 7.87692 128.43 8.8386 129.004 10.0293L125.141 11.2201C124.803 10.645 124.358 10.204 123.803 9.89614C123.248 9.58911 122.624 9.43479 121.931 9.43479C121.198 9.43479 120.524 9.62485 119.91 10.0042C119.296 10.3835 118.805 10.9139 118.438 11.5953C118.072 12.2768 117.889 13.0842 117.889 14.0182C117.889 14.9523 118.072 15.7118 118.438 16.4119C118.805 17.1129 119.295 17.6579 119.91 18.0469C120.524 18.436 121.208 18.6301 121.96 18.6301C122.455 18.6301 122.911 18.5513 123.327 18.3921C123.743 18.2338 124.124 18.0104 124.472 17.7229C124.818 17.4353 125.07 17.1234 125.229 16.7855L129.092 17.9763C128.736 18.7503 128.216 19.4448 127.532 20.0597C126.848 20.6745 126.046 21.1562 125.124 21.503C124.203 21.8498 123.168 22.0237 122.019 22.0237L122.02 22.022Z" fill="#2C3640"/>
<path d="M142.169 21.7248L137.622 15.0507L135.482 17.1178V21.7248H131.529V0.000732422H135.482V13.2199L141.782 6.28015H146.002L140.207 12.8357L146.418 21.7248H142.169Z" fill="#2C3640"/>
<path d="M153.76 22.0222C152.433 22.0222 151.16 21.8037 149.942 21.3675C148.723 20.9314 147.688 20.2864 146.836 19.4328L148.292 16.8442C149.203 17.5987 150.105 18.1535 150.996 18.5109C151.888 18.8683 152.759 19.0462 153.611 19.0462C154.384 19.0462 155.003 18.9121 155.469 18.6441C155.934 18.3761 156.167 17.9748 156.167 17.4387C156.167 17.0472 156.038 16.7483 155.781 16.5428C155.523 16.3373 155.151 16.1603 154.666 16.0141C154.181 15.8671 153.592 15.6957 152.898 15.4999C151.749 15.1474 150.793 14.79 150.03 14.4278C149.267 14.0655 148.688 13.6147 148.292 13.0762C147.895 12.5377 147.697 11.8473 147.697 11.005C147.697 9.98646 147.959 9.11087 148.485 8.37579C149.01 7.64153 149.743 7.06809 150.684 6.65709C151.625 6.2461 152.729 6.03979 153.997 6.03979C155.107 6.03979 156.156 6.21361 157.148 6.56044C158.138 6.90807 159.039 7.46771 159.852 8.24177L158.217 10.8011C157.444 10.1668 156.701 9.70542 155.989 9.41708C155.276 9.12955 154.552 8.98578 153.819 8.98578C153.403 8.98578 153.011 9.03452 152.645 9.13198C152.279 9.22945 151.981 9.39109 151.754 9.61527C151.526 9.84026 151.412 10.157 151.412 10.5672C151.412 10.9189 151.516 11.2016 151.725 11.4168C151.933 11.6312 152.249 11.8164 152.675 11.9732C153.101 12.1291 153.621 12.3054 154.236 12.5003C155.484 12.852 156.534 13.2086 157.386 13.5701C158.238 13.9315 158.887 14.3855 159.333 14.9322C159.779 15.4788 160.001 16.2204 160.001 17.1577C160.001 18.6806 159.437 19.8722 158.307 20.7315C157.178 21.5909 155.662 22.0198 153.76 22.0198V22.0222Z" fill="#2C3640"/>
<path d="M3.06682 34.4925C2.39521 34.4925 1.79337 34.3576 1.26128 34.0872C0.72919 33.8167 0.308223 33.4382 0 32.9517L1.19234 32.2101C1.37727 32.5114 1.62628 32.747 1.93856 32.9167C2.25084 33.0865 2.61178 33.1718 3.02058 33.1718C3.52185 33.1718 3.89415 33.0629 4.13748 32.8444C4.38082 32.6268 4.50167 32.3457 4.50167 32.0013C4.50167 31.7723 4.45138 31.5709 4.35162 31.3987C4.25104 31.2265 4.09531 31.0924 3.88279 30.9966C3.67028 30.9008 3.40667 30.8528 3.09034 30.8528H2.10646V29.6361H3.09034C3.34503 29.6361 3.55916 29.5922 3.73274 29.5037C3.90632 29.4152 4.03772 29.2941 4.12613 29.1406C4.21454 28.9871 4.25915 28.8101 4.25915 28.6102C4.25915 28.4104 4.21048 28.222 4.11477 28.0685C4.01825 27.915 3.87549 27.794 3.68651 27.7054C3.49752 27.6169 3.25662 27.573 2.96299 27.573C2.53878 27.573 2.17784 27.6559 1.88097 27.8224C1.5841 27.9889 1.35456 28.2066 1.19234 28.477L0.0348778 27.6656C0.351212 27.2099 0.748657 26.8428 1.22721 26.5642C1.70577 26.2864 2.30761 26.1467 3.03275 26.1467C3.60377 26.1467 4.09368 26.2336 4.50248 26.4066C4.91128 26.5805 5.22924 26.8323 5.45716 27.1637C5.68427 27.495 5.79864 27.8955 5.79864 28.3658C5.79864 28.7434 5.7078 29.096 5.52692 29.4233C5.34523 29.7506 5.0581 30.0032 4.66471 30.1803C5.12785 30.3184 5.48636 30.5645 5.74105 30.9178C5.99574 31.2711 6.12309 31.6862 6.12309 32.163C6.12309 32.6625 5.99006 33.0873 5.72402 33.4366C5.45797 33.7858 5.09541 34.049 4.63632 34.2261C4.17723 34.4031 3.65406 34.4908 3.06844 34.4908L3.06682 34.4925Z" fill="#2C3640"/>
<path d="M9.45577 26.2061H11.0764L14.0969 34.434H12.4536L11.7707 32.3831H8.75334L8.06714 34.434H6.42383L9.45577 26.2061ZM11.3968 31.259L10.2661 27.863L9.1297 31.259H11.3959H11.3968Z" fill="#2C3640"/>
<path d="M24.5014 35.9991V34.4348H15V26.2068H16.5971V33.0328H19.1083V26.2068H20.7054V33.0328H23.2166V26.2068H24.8023V33.0328H25.89V35.9999H24.5014V35.9991Z" fill="#2C3640"/>
<path d="M27.1855 34.4348V26.2068H28.7713V32.1865L32.7522 26.2068H34.2333V34.4348H32.6362V28.5241L28.7129 34.4348H27.1855Z" fill="#2C3640"/>
<path d="M42.1389 27.6087H39.5231V34.4348H37.9374V27.6087H35.2988V26.2068H42.1389V27.6087Z" fill="#2C3640"/>
<path d="M44.6491 26.2061H46.2697L49.2903 34.434H47.647L46.964 32.3831H43.9467L43.2605 34.434H41.6172L44.6491 26.2061ZM46.5901 31.259L45.4594 27.863L44.3231 31.259H46.5893H46.5901Z" fill="#2C3640"/>
<path d="M56.1177 34.4926C55.5159 34.4926 54.9716 34.3764 54.4858 34.1449C53.9999 33.9134 53.579 33.5983 53.2245 33.2003C52.8692 32.8023 52.5959 32.3539 52.4028 31.856C52.2098 31.3573 52.1133 30.8456 52.1133 30.3201C52.1133 29.7946 52.2155 29.2479 52.4199 28.75C52.6243 28.2521 52.9057 27.8078 53.2651 27.4172C53.6236 27.0273 54.0502 26.7178 54.5442 26.4904C55.0381 26.263 55.5743 26.1484 56.1526 26.1484C56.7309 26.1484 57.289 26.2687 57.7789 26.5075C58.2688 26.7471 58.6873 27.0679 59.0345 27.4691C59.3817 27.8712 59.6493 28.3187 59.8391 28.8134C60.0281 29.308 60.123 29.8181 60.123 30.3428C60.123 30.8675 60.0249 31.4036 59.8278 31.9015C59.6307 32.4002 59.3533 32.8445 58.9948 33.2344C58.6362 33.6243 58.2112 33.9321 57.7213 34.1555C57.2314 34.3797 56.6969 34.4917 56.1186 34.4917L56.1177 34.4926ZM53.7339 30.3201C53.7339 30.6758 53.7874 31.0194 53.8961 31.3516C54.004 31.6838 54.1605 31.9795 54.3649 32.2386C54.5693 32.4977 54.82 32.7024 55.1168 32.8527C55.4137 33.0029 55.7511 33.0784 56.1299 33.0784C56.5087 33.0784 56.8664 32.9997 57.16 32.8405C57.4528 32.6821 57.7018 32.4717 57.9062 32.2085C58.1106 31.9462 58.2631 31.6481 58.3637 31.3159C58.4643 30.9837 58.5138 30.6515 58.5138 30.3193C58.5138 29.9643 58.4594 29.6224 58.3515 29.2934C58.2437 28.9653 58.0855 28.6712 57.877 28.413C57.6686 28.1539 57.418 27.9492 57.1251 27.7989C56.8315 27.6486 56.4965 27.5731 56.1186 27.5731C55.7406 27.5731 55.4032 27.6527 55.1055 27.8103C54.8086 27.9687 54.558 28.1774 54.3536 28.4365C54.1492 28.6956 53.9951 28.9888 53.8904 29.317C53.7866 29.6451 53.7339 29.9798 53.7339 30.3193V30.3201Z" fill="#2C3640"/>
<path d="M67.2971 27.6087H64.6813V34.4348H63.0956V27.6087H60.457V26.2068H67.2971V27.6087Z" fill="#2C3640"/>
<path d="M70.2715 30.251C70.2715 29.741 70.3623 29.2447 70.5432 28.7614C70.7241 28.2789 70.9909 27.8403 71.3413 27.4464C71.6926 27.0525 72.1184 26.7373 72.6205 26.5018C73.1217 26.2662 73.6887 26.1484 74.3214 26.1484C75.0773 26.1484 75.7311 26.3149 76.2826 26.6472C76.8342 26.9794 77.2414 27.4123 77.5034 27.9451L76.2883 28.7915C76.1496 28.4828 75.9679 28.2391 75.7441 28.0613C75.5202 27.8834 75.2793 27.7559 75.0205 27.6787C74.7618 27.6015 74.5128 27.5625 74.2743 27.5625C73.8728 27.5625 73.524 27.6438 73.2272 27.8062C72.9303 27.9687 72.6829 28.1807 72.4866 28.4438C72.2895 28.7062 72.1411 29.0002 72.0413 29.3243C71.9408 29.6492 71.8913 29.9773 71.8913 30.3095C71.8913 30.6653 71.9489 31.0105 72.0649 31.3468C72.1808 31.683 72.3447 31.9803 72.5564 32.2394C72.7681 32.4985 73.0228 32.7032 73.3205 32.8535C73.6173 33.0037 73.9434 33.0793 74.2987 33.0793C74.5452 33.0793 74.7999 33.037 75.0627 32.9517C75.3247 32.8665 75.568 32.7316 75.7919 32.5464C76.0158 32.3612 76.1967 32.1176 76.3362 31.8162L77.6323 32.5814C77.4628 32.9907 77.1943 33.3384 76.8277 33.6243C76.4611 33.9102 76.0523 34.1262 75.6013 34.2733C75.1503 34.4203 74.7002 34.4934 74.2532 34.4934C73.6668 34.4934 73.1323 34.3715 72.6505 34.1287C72.1679 33.885 71.7493 33.5609 71.3949 33.1548C71.0396 32.7495 70.7638 32.293 70.5675 31.787C70.3704 31.281 70.2723 30.7693 70.2723 30.251H70.2715Z" fill="#2C3640"/>
<path d="M78.7324 34.4348V26.2068H80.3181V29.5329H81.1285L83.5707 26.2068H85.3527L82.367 30.1819L85.5847 34.4356H83.6518L81.1057 30.9819H80.319V34.4356H78.7332L78.7324 34.4348Z" fill="#2C3640"/>
<path d="M91.9027 34.4349V27.6089H89.4953L89.4491 28.9994C89.4102 30.0886 89.3234 30.9886 89.1887 31.7001C89.0541 32.4108 88.8529 32.9672 88.5869 33.3693C88.3208 33.7713 87.9907 34.0589 87.5973 34.2327C87.2039 34.4065 86.7294 34.4934 86.1738 34.4934V33.1028C86.4512 33.1028 86.6946 33.0411 86.903 32.9177C87.1115 32.7942 87.2867 32.57 87.4294 32.2451C87.5722 31.9202 87.6857 31.4613 87.7709 30.8659C87.8561 30.2714 87.9137 29.5022 87.9445 28.56L88.0256 26.2078H93.4884V34.4357H91.9027V34.4349Z" fill="#2C3640"/>
<path d="M95.2695 34.4348V26.2068H96.8552V32.1865L100.836 26.2068H102.317V34.4348H100.72V28.5241L96.7969 34.4348H95.2695Z" fill="#2C3640"/>
<path d="M104.111 34.4348V26.2068H105.697V29.5329H106.507L108.95 26.2068H110.732L107.746 30.1819L110.964 34.4356H109.031L106.485 30.9819H105.698V34.4356H104.112L104.111 34.4348Z" fill="#2C3640"/>
<path d="M112.109 34.4348V26.2068H113.695V32.1865L117.676 26.2068H119.157V34.4348H117.56V28.5241L113.637 34.4348H112.109Z" fill="#2C3640"/>
<path d="M127.547 32.3255C127.547 32.7812 127.427 33.1654 127.189 33.4789C126.949 33.7916 126.627 34.0296 126.223 34.1921C125.818 34.3545 125.376 34.4357 124.897 34.4357H120.928V26.2078H125.326C125.712 26.2078 126.045 26.3101 126.326 26.5148C126.608 26.7195 126.825 26.9826 126.975 27.3027C127.125 27.6235 127.2 27.9573 127.2 28.305C127.2 28.6989 127.099 29.0717 126.899 29.4234C126.698 29.7751 126.405 30.0399 126.02 30.217C126.49 30.3559 126.863 30.6068 127.137 30.9699C127.411 31.333 127.547 31.7854 127.547 32.3255ZM122.525 27.5739V29.6484H124.654C124.832 29.6484 124.993 29.6062 125.14 29.5209C125.287 29.4356 125.404 29.3162 125.493 29.1619C125.581 29.0075 125.626 28.8256 125.626 28.6169C125.626 28.4081 125.585 28.2172 125.504 28.0662C125.423 27.9159 125.315 27.7957 125.18 27.7072C125.045 27.6186 124.892 27.5739 124.723 27.5739H122.524H122.525ZM125.939 32.0128C125.939 31.8041 125.897 31.6173 125.811 31.4508C125.726 31.2851 125.613 31.151 125.47 31.0511C125.327 30.9512 125.163 30.9009 124.978 30.9009H122.525V33.0793H124.897C125.09 33.0793 125.266 33.0314 125.424 32.9347C125.582 32.8381 125.708 32.7089 125.8 32.5465C125.893 32.384 125.939 32.2061 125.939 32.0136V32.0128Z" fill="#2C3640"/>
<path d="M130.846 26.2061H132.467L135.488 34.434H133.844L133.161 32.3831H130.144L129.458 34.434H127.814L130.846 26.2061ZM132.787 31.259L131.656 27.863L130.52 31.259H132.786H132.787Z" fill="#2C3640"/>
<path d="M143.3 26.2061V34.434H141.714V30.9227H137.988V34.434H136.391V26.2061H137.988V29.5322H141.714V26.2061H143.3Z" fill="#2C3640"/>
<path d="M145.07 34.4348V26.2068H146.656V32.1865L150.637 26.2068H152.118V34.4348H150.521V28.5241L146.598 34.4348H145.07Z" fill="#2C3640"/>
<path d="M153.668 34.4348L155.682 31.1322C155.165 30.9698 154.764 30.6765 154.478 30.2517C154.193 29.8269 154.05 29.325 154.05 28.745C154.05 28.2504 154.166 27.8158 154.397 27.4414C154.628 27.067 154.95 26.7672 155.363 26.5431C155.776 26.3189 156.249 26.2068 156.781 26.2068H159.999V34.4348H158.413V31.3288H157.29L155.474 34.4348H153.668ZM156.978 29.9609H158.413V27.5616H157.001C156.753 27.5616 156.53 27.6063 156.329 27.6948C156.129 27.7833 155.968 27.9149 155.849 28.0887C155.729 28.2626 155.67 28.4811 155.67 28.7434C155.67 29.0058 155.723 29.2283 155.832 29.4094C155.94 29.5914 156.094 29.7278 156.295 29.8212C156.496 29.9138 156.723 29.9601 156.978 29.9601V29.9609Z" fill="#2C3640"/>
<path d="M37.8022 13.9575C37.8022 14.8745 37.6506 15.7582 37.3715 16.581L35.9407 16.0238C36.1549 15.3732 36.27 14.6787 36.27 13.9566C36.27 10.2894 33.29 7.30523 29.6278 7.30523C25.9657 7.30523 22.9873 10.2894 22.9873 13.9566C22.9873 17.6239 25.9657 20.6064 29.6278 20.6064C30.1851 20.6064 30.7269 20.5366 31.2452 20.4066L31.7254 21.8662C31.057 22.0457 30.3538 22.1408 29.6278 22.1408C25.1213 22.1408 21.4551 18.4702 21.4551 13.9566C21.4551 9.44304 25.1205 5.77173 29.6278 5.77173C34.1352 5.77173 37.8014 9.44223 37.8014 13.9566L37.8022 13.9575Z" fill="#009247"/>
<path d="M34.0828 15.3L28.9014 13.2825L30.6218 18.506C30.3022 18.5774 29.9704 18.614 29.6298 18.614C27.0618 18.614 24.9805 16.5298 24.9805 13.9582C24.9805 11.3867 27.0618 9.30249 29.6298 9.30249C32.1977 9.30249 34.2791 11.3867 34.2791 13.9582C34.2791 14.4245 34.2109 14.8752 34.0828 15.3Z" fill="#009247"/>
<path d="M39.5196 18.269L38.9105 18.4924L35.6936 19.6661L35.1023 19.8813L34.863 20.4345L33.5353 23.5161L33.2911 24.0822L33.154 23.668L32.5343 21.7828L31.7281 19.3347L30.1797 14.6318L34.8428 16.4472L37.2469 17.3837L39.0946 18.1033L39.5196 18.269Z" fill="#2C3640"/>
</svg>
