<svg width="197" height="55" viewBox="0 0 197 55" fill="none" xmlns="http://www.w3.org/2000/svg">
<rect y="6.80542" width="195" height="48" rx="24" transform="rotate(-2 0 6.80542)" fill="white"/>
<rect x="4.13672" y="10.6633" width="40" height="40" rx="20" transform="rotate(-2 4.13672 10.6633)" fill="#009247"/>
<path d="M34.9274 29.1944C34.9687 30.3769 34.8129 31.5233 34.4901 32.5969L32.62 31.9428C32.8668 31.0942 32.9841 30.1935 32.9515 29.2624C32.7864 24.5333 28.8092 20.8193 24.0867 20.9842C19.3641 21.1491 15.6578 25.1314 15.8229 29.8605C15.9881 34.5896 19.9631 38.3015 24.6856 38.1366C25.4042 38.1115 26.0998 37.997 26.7623 37.8061L27.4472 39.6667C26.5934 39.9283 25.6909 40.0825 24.7547 40.1152C18.9434 40.3181 14.0504 35.75 13.8471 29.9295C13.6438 24.109 18.2052 19.2097 24.0176 19.0067C29.83 18.8037 34.723 23.3719 34.9263 29.1934L34.9274 29.1944Z" fill="white"/>
<path d="M30.1895 31.0932L23.417 28.7248L25.8707 35.3832C25.4618 35.4898 25.0357 35.5518 24.5964 35.5672C21.2849 35.6828 18.5071 33.0889 18.3913 29.7728C18.2755 26.4567 20.8656 23.6753 24.1771 23.5597C27.4886 23.444 30.2664 26.038 30.3822 29.3541C30.4032 29.9553 30.3356 30.5397 30.1895 31.0932Z" fill="white"/>
<path d="M37.335 34.6769L36.5595 34.9924L32.4641 36.6508L31.7113 36.955L31.4276 37.679L29.8542 41.7127L29.5648 42.4537L29.3694 41.9257L28.4854 39.5226L27.3355 36.402L25.127 30.4072L31.2219 32.5382L34.3643 33.6376L36.7794 34.4824L37.335 34.6769Z" fill="white"/>
<path d="M66.749 36.3238C65.5251 36.3666 64.3863 36.2192 63.3325 35.8818C62.2788 35.5444 61.3477 35.0412 60.5392 34.3724C59.7377 33.6959 59.1037 32.8742 58.637 31.9073C58.1703 30.9403 57.9156 29.8448 57.8728 28.6209C57.8303 27.4043 58.0008 26.2977 58.3843 25.3011C58.7675 24.2971 59.3205 23.4302 60.0435 22.7006C60.7736 21.9633 61.6376 21.3865 62.6357 20.97C63.6411 20.5534 64.7448 20.324 65.9467 20.2821C66.5037 20.2626 67.0696 20.2869 67.6443 20.3549C68.219 20.4229 68.7848 20.5499 69.3416 20.7359C69.9055 20.9143 70.4427 21.167 70.9531 21.4941L69.9433 23.4665C69.374 23.1342 68.7602 22.8915 68.1017 22.7384C67.4507 22.585 66.7807 22.5203 66.0918 22.5444C65.1976 22.5756 64.3925 22.7395 63.6764 23.036C62.9601 23.3252 62.3542 23.7315 61.8589 24.2552C61.3633 24.7714 60.9886 25.3899 60.7349 26.1105C60.4886 26.8309 60.3809 27.6345 60.4119 28.5213C60.4554 29.7672 60.7562 30.817 61.3143 31.6707C61.8725 32.5244 62.6212 33.1623 63.5605 33.5845C64.5069 33.999 65.5847 34.1852 66.794 34.1429C67.3876 34.1222 67.9207 34.0486 68.3932 33.922C68.8655 33.7881 69.2457 33.6427 69.5337 33.4859L69.4039 29.7702L65.9081 29.8923L65.8367 27.8475L71.5422 27.6483L71.7933 34.8379C71.3996 35.1231 70.9021 35.3753 70.3008 35.5944C69.7067 35.8133 69.089 35.9853 68.4476 36.1104C67.8136 36.2353 67.2474 36.3064 66.749 36.3238ZM80.2593 35.8521C79.1233 35.8917 78.0992 35.667 77.1869 35.1779C76.2817 34.6812 75.561 34.0056 75.0248 33.1511C74.4884 32.2893 74.2019 31.3344 74.1653 30.2863C74.1382 29.5095 74.2555 28.7716 74.5173 28.0727C74.7861 27.3662 75.1751 26.7363 75.6841 26.1828C76.2004 25.6291 76.8123 25.1859 77.5198 24.853C78.2272 24.5201 79.0097 24.3387 79.8672 24.3087C81.0032 24.269 82.0238 24.4976 82.929 24.9943C83.8413 25.4834 84.5656 26.1589 85.102 27.0207C85.6382 27.8751 85.9246 28.8264 85.9612 29.8744C85.988 30.644 85.867 31.382 85.5982 32.0884C85.3367 32.7947 84.9514 33.4245 84.4424 33.9779C83.9334 34.5314 83.3252 34.9745 82.6177 35.3074C81.9102 35.6403 81.1241 35.8219 80.2593 35.8521ZM80.1844 33.7084C80.8587 33.6848 81.4509 33.5174 81.961 33.2061C82.4782 32.8871 82.8775 32.4513 83.1591 31.8984C83.4406 31.3456 83.5685 30.6991 83.5426 29.9589C83.5168 29.2187 83.3441 28.5826 83.0247 28.0508C82.705 27.5116 82.2762 27.1047 81.7383 26.8299C81.2077 26.555 80.6053 26.4292 79.9311 26.4528C79.2568 26.4763 78.661 26.6439 78.1435 26.9555C77.6334 27.2668 77.2377 27.7025 76.9564 28.2627C76.6822 28.8153 76.558 29.4617 76.5839 30.2019C76.6097 30.9421 76.7824 31.5781 77.1018 32.11C77.4212 32.6418 77.8463 33.0489 78.3772 33.3312C78.9151 33.6059 79.5175 33.7317 80.1844 33.7084ZM93.6574 35.3842C92.5214 35.4239 91.4973 35.1991 90.585 34.71C89.6798 34.2133 88.9591 33.5377 88.4229 32.6832C87.8865 31.8214 87.6 30.8665 87.5634 29.8185C87.5363 29.0416 87.6536 28.3037 87.9154 27.6048C88.1842 26.8984 88.5731 26.2684 89.0821 25.715C89.5985 25.1613 90.2104 24.718 90.9179 24.3851C91.6253 24.0522 92.4078 23.8708 93.2653 23.8408C94.4013 23.8012 95.4219 24.0297 96.3271 24.5264C97.2394 25.0155 97.9637 25.691 98.5001 26.5528C99.0363 27.4073 99.3226 28.3585 99.3592 29.4066C99.3861 30.1761 99.2651 30.9141 98.9963 31.6206C98.7348 32.3268 98.3495 32.9566 97.8405 33.5101C97.3315 34.0635 96.7233 34.5067 96.0158 34.8395C95.3083 35.1724 94.5222 35.354 93.6574 35.3842ZM93.5825 33.2405C94.2568 33.2169 94.849 33.0495 95.3591 32.7382C95.8763 32.4193 96.2756 31.9834 96.5572 31.4306C96.8387 30.8777 96.9666 30.2312 96.9407 29.491C96.9149 28.7508 96.7422 28.1148 96.4228 27.5829C96.1031 27.0437 95.6743 26.6368 95.1364 26.3621C94.6058 26.0871 94.0034 25.9614 93.3292 25.9849C92.6549 26.0085 92.059 26.176 91.5416 26.4876C91.0315 26.7989 90.6358 27.2347 90.3545 27.7948C90.0803 28.3474 89.9561 28.9938 89.982 29.734C90.0078 30.4742 90.1804 31.1103 90.4999 31.6421C90.8193 32.1739 91.2444 32.581 91.7753 32.8633C92.3132 33.1381 92.9156 33.2638 93.5825 33.2405ZM106.616 34.9317C105.553 34.9688 104.603 34.7525 103.764 34.2828C102.926 33.8058 102.257 33.143 101.758 32.2946C101.266 31.4386 101 30.4573 100.962 29.3506C100.934 28.5518 101.039 27.7996 101.279 27.0941C101.518 26.3814 101.871 25.7527 102.336 25.2081C102.808 24.6633 103.373 24.2327 104.03 23.9162C104.693 23.5922 105.432 23.416 106.246 23.3876C107.235 23.353 108.099 23.5209 108.839 23.8914C109.578 24.2618 110.202 24.7903 110.71 25.477L110.223 26.0333L109.965 18.6349L112.384 18.5504L112.936 34.3807L110.76 34.4568L110.668 31.8404L111.039 32.3777C110.668 33.0805 110.12 33.672 109.395 34.1522C108.678 34.6322 107.752 34.892 106.616 34.9317ZM106.981 32.7726C107.655 32.7491 108.247 32.5816 108.757 32.2703C109.274 31.9514 109.674 31.5155 109.955 30.9627C110.237 30.4099 110.365 29.7634 110.339 29.0231C110.313 28.2829 110.14 27.6469 109.821 27.115C109.501 26.5759 109.072 26.1689 108.534 25.8942C108.004 25.6192 107.401 25.4935 106.727 25.517C106.053 25.5406 105.461 25.708 104.951 26.0193C104.441 26.3307 104.045 26.7664 103.764 27.3266C103.482 27.8794 103.354 28.5259 103.38 29.2661C103.406 30.0064 103.579 30.6424 103.898 31.1742C104.217 31.7061 104.642 32.1131 105.173 32.3955C105.711 32.6702 106.314 32.7959 106.981 32.7726ZM123.644 34.337C122.046 34.3928 120.639 34.1118 119.421 33.4939C118.203 32.876 117.24 31.9778 116.531 30.7991C115.829 29.6129 115.45 28.2136 115.394 26.6012C115.353 25.4286 115.51 24.3482 115.864 23.3599C116.226 22.364 116.749 21.4945 117.435 20.7514C118.128 20.0081 118.955 19.4216 119.916 18.9918C120.877 18.562 121.94 18.3267 123.106 18.286C124.278 18.2451 125.295 18.3564 126.155 18.6198C127.023 18.883 127.785 19.2747 128.441 19.7947L127.236 21.851C126.737 21.4209 126.161 21.1071 125.509 20.9098C124.856 20.7124 124.141 20.6273 123.364 20.6545C122.507 20.6844 121.738 20.8433 121.059 21.1312C120.379 21.4191 119.802 21.8171 119.328 22.3253C118.861 22.8259 118.508 23.429 118.269 24.1344C118.036 24.8323 117.935 25.6173 117.966 26.4894C118.007 27.6767 118.273 28.6837 118.765 29.5104C119.263 30.3368 119.945 30.9587 120.811 31.3761C121.684 31.7859 122.703 31.9704 123.868 31.9297C124.645 31.9026 125.389 31.7629 126.099 31.5106C126.816 31.2508 127.481 30.8497 128.093 30.3073L129.309 32.3451C128.589 32.9499 127.758 33.4229 126.816 33.764C125.881 34.1048 124.824 34.2958 123.644 34.337ZM131.63 33.7279L131.078 17.8976L133.496 17.8131L134.049 33.6435L131.63 33.7279ZM137.406 33.5262L137.026 22.6429L139.445 22.5584L139.825 33.4418L137.406 33.5262ZM138.167 20.6548C137.735 20.6699 137.356 20.5437 137.032 20.2762C136.707 20.0088 136.536 19.6478 136.52 19.1934C136.505 18.7464 136.65 18.3781 136.955 18.0886C137.26 17.7917 137.629 17.6358 138.062 17.6207C138.494 17.6056 138.873 17.7354 139.198 18.0103C139.523 18.2778 139.693 18.635 139.709 19.0821C139.724 19.5365 139.58 19.9084 139.274 20.1979C138.969 20.4874 138.6 20.6397 138.167 20.6548ZM148.184 33.4801C147.041 33.52 146.014 33.3064 145.102 32.8392C144.19 32.3648 143.463 31.7041 142.92 30.8572C142.384 30.0027 142.096 29.0222 142.058 27.9155C142.028 27.08 142.152 26.3089 142.428 25.6022C142.704 24.8881 143.108 24.2613 143.639 23.7217C144.171 23.1822 144.802 22.7566 145.532 22.4449C146.269 22.133 147.074 21.9618 147.946 21.9313C148.679 21.9057 149.361 21.981 149.99 22.1571C150.627 22.3257 151.217 22.6023 151.758 22.9869L150.658 24.8745C150.31 24.5858 149.914 24.3758 149.469 24.2446C149.031 24.1131 148.567 24.056 148.076 24.0731C147.314 24.0997 146.663 24.2655 146.123 24.5706C145.584 24.8756 145.169 25.3046 144.88 25.8577C144.599 26.4032 144.471 27.0571 144.498 27.8193C144.537 28.9552 144.898 29.8342 145.58 30.4561C146.27 31.0777 147.186 31.3686 148.329 31.3287C148.872 31.3097 149.381 31.1929 149.858 30.9781C150.335 30.756 150.728 30.4744 151.039 30.1334L152.258 31.929C151.694 32.3889 151.061 32.7559 150.359 33.0299C149.657 33.3039 148.932 33.454 148.184 33.4801ZM154.519 32.9287L153.966 17.0983L156.385 17.0138L156.712 26.3801L160.845 21.8111L163.703 21.7113L160.001 26.0121L164.644 32.5751L161.752 32.6761L158.297 27.6456L156.812 29.2604L156.937 32.8442L154.519 32.9287ZM170.462 32.6911C169.56 32.7226 168.713 32.6238 167.92 32.3946C167.127 32.1655 166.455 31.8441 165.905 31.4304L166.756 29.6286C167.275 30.0067 167.854 30.2983 168.492 30.5035C169.138 30.7084 169.768 30.8002 170.384 30.7787C171.095 30.7538 171.644 30.6099 172.031 30.3469C172.418 30.0839 172.604 29.7289 172.588 29.2818C172.573 28.8567 172.39 28.5513 172.039 28.3654C171.695 28.172 171.042 27.982 170.082 27.7954C168.701 27.5574 167.69 27.1891 167.049 26.6905C166.415 26.1844 166.082 25.4659 166.05 24.5351C166.027 23.8829 166.186 23.3013 166.528 22.7904C166.877 22.2719 167.365 21.8586 167.993 21.5505C168.62 21.2424 169.352 21.0738 170.187 21.0446C171.001 21.0162 171.771 21.1067 172.497 21.3161C173.223 21.5183 173.857 21.819 174.4 22.2183L173.604 24.0292C173.325 23.7968 173.002 23.5989 172.637 23.4355C172.272 23.2722 171.886 23.1499 171.48 23.0687C171.08 22.9799 170.683 22.9425 170.287 22.9563C169.671 22.9778 169.174 23.1162 168.794 23.3717C168.421 23.6195 168.242 23.9523 168.256 24.37C168.271 24.8024 168.466 25.1148 168.839 25.3072C169.213 25.4997 169.85 25.6828 170.752 25.8568C172.169 26.1155 173.191 26.4907 173.818 26.9825C174.444 27.4743 174.773 28.1746 174.805 29.0833C174.829 29.7796 174.663 30.3944 174.308 30.9278C173.952 31.4539 173.442 31.8716 172.777 32.181C172.121 32.4901 171.349 32.6601 170.462 32.6911Z" fill="#009247"/>
</svg>
