<svg width="665" height="489" viewBox="0 0 665 489" fill="none" xmlns="http://www.w3.org/2000/svg">
<path d="M140.267 489C98.5811 489 64.7819 474.702 38.8691 446.105C12.9564 417.509 0 378.904 0 330.29C0 291.97 9.01313 253.651 27.0394 215.332C45.0656 177.012 72.105 139.551 108.158 102.947C144.21 66.3439 188.712 32.0281 241.665 0L307.573 88.3632C265.324 108.381 227.863 132.974 195.191 162.142C163.081 191.311 141.112 219.907 129.282 247.932C154.632 246.216 177.728 250.219 198.571 259.942C219.977 269.093 236.876 282.533 249.269 300.263C261.662 317.993 267.859 339.154 267.859 363.747C267.859 400.923 255.748 431.235 231.525 454.684C207.865 477.561 177.446 489 140.267 489ZM497.694 489C456.008 489 422.209 474.702 396.296 446.105C370.383 417.509 357.427 378.904 357.427 330.29C357.427 291.97 366.44 253.651 384.466 215.332C402.493 177.012 429.532 139.551 465.585 102.947C501.637 66.3439 546.139 32.0281 599.091 0L665 88.3632C622.751 108.381 585.29 132.974 552.617 162.142C520.508 191.311 498.539 219.907 486.709 247.932C512.058 246.216 535.155 250.219 555.997 259.942C577.404 269.093 594.303 282.533 606.696 300.263C619.089 317.993 625.286 339.154 625.286 363.747C625.286 400.923 613.174 431.235 588.952 454.684C565.292 477.561 534.873 489 497.694 489Z" fill="url(#paint0_linear_44_425)"/>
<defs>
<linearGradient id="paint0_linear_44_425" x1="332.5" y1="0" x2="332.5" y2="489" gradientUnits="userSpaceOnUse">
<stop stop-color="#009247"/>
<stop offset="1" stop-color="#01150B" stop-opacity="0"/>
</linearGradient>
</defs>
</svg>
