<svg width="0" height="0" class="hidden">
  <symbol fill="none" xmlns="http://www.w3.org/2000/svg" viewBox="0 0 17 17" id="user-circle">
    <path d="M8.25 9.91667C9.63071 9.91667 10.75 8.79738 10.75 7.41667C10.75 6.03595 9.63071 4.91667 8.25 4.91667C6.86929 4.91667 5.75 6.03595 5.75 7.41667C5.75 8.79738 6.86929 9.91667 8.25 9.91667ZM8.25 9.91667C7.47583 9.91667 7.08874 9.91667 6.76486 9.96797C4.98197 10.2503 3.58368 11.6486 3.3013 13.4315C3.2816 13.5559 3.26946 13.6896 3.26199 13.851C4.58744 15.0322 6.33489 15.75 8.25 15.75M8.25 9.91667C9.02417 9.91667 9.41126 9.91667 9.73514 9.96797C11.518 10.2503 12.9163 11.6486 13.1987 13.4315C13.2184 13.5559 13.2305 13.6896 13.238 13.851C11.9126 15.0322 10.1651 15.75 8.25 15.75M8.25 15.75C12.3921 15.75 15.75 12.3921 15.75 8.25C15.75 4.10786 12.3921 0.75 8.25 0.75C4.10786 0.75 0.75 4.10786 0.75 8.25C0.75 12.3921 4.10786 15.75 8.25 15.75Z" stroke="currentColor" stroke-width="1.5" stroke-linecap="round" stroke-linejoin="round"></path>
  </symbol>
  <symbol fill="none" xmlns="http://www.w3.org/2000/svg" viewBox="0 0 32 32" id="yadirect">
    <path d="M32.0015 16C32.0015 24.8353 24.8368 32 16.0015 32C7.16466 32 0 24.8368 0 16C0 7.16466 7.16466 0 16 0C24.8368 0 32.0015 7.1632 32.0015 16Z" fill="url(#paint0_linear_1451_7749)"></path>
    <path d="M22.4287 30.7251C25.2926 29.4735 27.7294 27.4139 29.4406 24.7985C31.1518 22.1831 32.0631 19.1255 32.0629 16C32.0629 11.0537 29.827 6.63017 26.3104 3.68311L9.09537 7.86565C7.98042 8.13963 7.01756 8.84034 6.41398 9.817C5.81039 10.7937 5.61431 11.9682 5.86792 13.088C5.99265 13.6382 6.22575 14.158 6.55361 14.6171C6.88146 15.0762 7.2975 15.4653 7.77742 15.7618C8.25735 16.0584 8.79154 16.2563 9.3488 16.3441C9.90607 16.4319 10.4752 16.4077 11.0231 16.2731L19.2976 14.2621L4.82666 27.5429C7.16868 29.8141 10.1483 31.3161 13.367 31.8481L25.3728 20.831L22.6361 28.9741C22.4459 29.5365 22.3753 30.1338 22.4287 30.7251Z" fill="#BAD3FD"></path>
    <defs>
      <linearGradient id="paint0_linear_1451_7749" x1="16" y1="0" x2="16" y2="32" gradientUnits="userSpaceOnUse">
        <stop stop-color="#3155E7"></stop>
        <stop offset="1" stop-color="#281CA6"></stop>
      </linearGradient>
    </defs>
  </symbol>
  <symbol fill="none" xmlns="http://www.w3.org/2000/svg" viewBox="0 0 44 44" id="know-1">
    <path d="M40 31V34H4V31L40 31Z" fill="#009247"></path>
    <path d="M40 24V27H4V24L40 24Z" fill="#009247"></path>
    <path d="M40 17V20H4V17L40 17Z" fill="#009247"></path>
    <path opacity="0.3" d="M40 10.0001V13.0001L4 13.0001V10.0001L40 10.0001Z" fill="#009247"></path>
  </symbol>
  <symbol fill="none" xmlns="http://www.w3.org/2000/svg" viewBox="0 0 44 44" id="know-2">
    <path d="M40 31V34H4V31L40 31Z" fill="#009247"></path>
    <g opacity="0.3">
      <path d="M40.0006 14.4999L40.0005 17.9999L4.00063 27.5001L4.00063 24.3175L40.0006 14.4999Z" fill="#009247"></path>
      <path d="M40 25V28H4V25H40Z" fill="#009247"></path>
    </g>
    <path d="M40 9V12L4 12V9L40 9Z" fill="#009247"></path>
  </symbol>
  <symbol fill="none" xmlns="http://www.w3.org/2000/svg" viewBox="0 0 44 44" id="know-3">
    <path d="M36.839 11.5421L38.339 14.1402L7.16211 32.1402L5.66211 29.5421L36.839 11.5421Z" fill="#009247"></path>
    <path d="M38.339 29.8596L36.839 32.4577L5.66211 14.4577L7.16211 11.8596L38.339 29.8596Z" fill="#009247"></path>
    <path opacity="0.3" d="M23.5 40.1587L20.5 40.1587L20.5 4.15869L23.5 4.15869L23.5 40.1587Z" fill="#009247"></path>
  </symbol>
  <symbol fill="none" xmlns="http://www.w3.org/2000/svg" viewBox="0 0 44 44" id="know-4">
    <path d="M16 35.7674L12.5 35.7674L20.5 7.76758L24 7.76733L16 35.7674Z" fill="#009247"></path>
    <path d="M12 35.7674L15.5 35.7674L7.5 7.76758L4 7.76733L12 35.7674Z" fill="#009247"></path>
    <g opacity="0.3">
      <path d="M27.5 7.99994L31 7.99994L23 35.9998L19.5 36L27.5 7.99994Z" fill="#009247"></path>
      <path d="M31.5 7.99994L28 7.99994L36 35.9998L39.5 36L31.5 7.99994Z" fill="#009247"></path>
    </g>
  </symbol>
  <symbol fill="none" xmlns="http://www.w3.org/2000/svg" viewBox="0 0 41 38" id="traingle">
    <path d="M40.9464 36.198H0L1.73438 33.1313H39.2081L40.9464 36.198Z" fill="#009247"></path>
    <path d="M22.141 3.13133L3.46776 36.1927L0.00366211 36.1927L20.4455 4.41242e-05L22.141 3.13133Z" fill="#009247"></path>
    <path opacity="0.3" d="M18.7169 3.07524L37.4275 36.2028L40.8916 36.2028L20.4466 0.00433423L18.7169 3.07524Z" fill="#009247"></path>
  </symbol>
  <symbol fill="none" xmlns="http://www.w3.org/2000/svg" viewBox="0 0 44 44" id="ix">
    <path d="M33.6673 8.05258L35.7886 10.1739L10.3327 35.6297L8.21143 33.5084L33.6673 8.05258Z" fill="#009247"></path>
    <path opacity="0.3" d="M35.7886 33.826L33.6673 35.9473L8.21144 10.4914L10.3328 8.37012L35.7886 33.826Z" fill="#009247"></path>
  </symbol>
  <symbol fill="none" xmlns="http://www.w3.org/2000/svg" viewBox="0 0 44 44" id="cros">
    <path d="M39.5514 28.3175L38.7749 31.2153L4.00162 21.8978L4.77808 19L39.5514 28.3175Z" fill="#009247"></path>
    <path d="M39.5497 21.3175L38.7732 24.2153L3.99991 14.8978L4.77637 12L39.5497 21.3175Z" fill="#009247"></path>
    <path opacity="0.3" d="M20.5 3.79016L23.5 3.79016L23.5 39.7902L20.5 39.7902L20.5 3.79016Z" fill="#009247"></path>
  </symbol>
  <symbol fill="none" xmlns="http://www.w3.org/2000/svg" viewBox="0 0 17 17" id="table">
    <path d="M0.75 5.75L15.75 5.75M0.75 10.75L15.75 10.75M5.75 15.75L5.75 0.75M11.75 15.75H4.75C3.34987 15.75 2.6498 15.75 2.11502 15.4775C1.64462 15.2378 1.26217 14.8554 1.02248 14.385C0.75 13.8502 0.75 13.1501 0.75 11.75L0.75 4.75C0.75 3.34987 0.75 2.6498 1.02248 2.11502C1.26217 1.64462 1.64462 1.26217 2.11502 1.02248C2.6498 0.75 3.34987 0.75 4.75 0.75L11.75 0.75C13.1501 0.75 13.8502 0.75 14.385 1.02248C14.8554 1.26217 15.2378 1.64462 15.4775 2.11502C15.75 2.6498 15.75 3.34987 15.75 4.75V11.75C15.75 13.1501 15.75 13.8502 15.4775 14.385C15.2378 14.8554 14.8554 15.2378 14.385 15.4775C13.8502 15.75 13.1501 15.75 11.75 15.75Z" stroke="currentColor" stroke-width="1.5" stroke-linecap="round" stroke-linejoin="round"></path>
  </symbol>
  <symbol fill="none" xmlns="http://www.w3.org/2000/svg" viewBox="0 0 20 20" id="star">
    <path d="M14.6402 10.0259L13.997 9.72788L10.605 8.14934L9.98185 7.85881L9.36965 8.10129L5.96301 9.45627L5.33701 9.70503L5.55114 9.2791L6.52885 7.34386L7.79731 4.82962L10.2344 0L12.4345 5.00512L13.5683 7.58605L14.4399 9.56954L14.6402 10.0259Z" fill="white"></path>
    <path d="M5.35978 9.97408L6.00296 10.2721L9.39502 11.8507L10.0181 12.1412L10.6304 11.8987L14.037 10.5437L14.663 10.295L14.4489 10.7209L13.4711 12.6561L12.2027 15.1704L9.76562 20L7.56552 14.9949L6.43165 12.414L5.56013 10.4305L5.35978 9.97408Z" fill="white"></path>
    <path d="M10.0259 5.35953L9.72788 6.00272L8.14934 9.39478L7.85881 10.0179L8.10129 10.6301L9.45627 14.0367L9.70503 14.6627L9.2791 14.4486L7.34386 13.4709L4.82962 12.2024L0 9.76538L5.00512 7.56527L7.58605 6.43141L9.56954 5.55988L10.0259 5.35953Z" fill="white"></path>
    <path d="M9.97408 14.6407L10.2721 13.9975L11.8507 10.6055L12.1412 9.98234L11.8987 9.37014L10.5437 5.9635L10.295 5.3375L10.7209 5.55163L12.6561 6.52934L15.1704 7.7978L20 10.2349L14.9949 12.435L12.414 13.5688L10.4305 14.4404L9.97408 14.6407Z" fill="white"></path>
  </symbol>
  <symbol fill="none" xmlns="http://www.w3.org/2000/svg" viewBox="0 0 20 20" id="star2">
    <path d="M14.6402 10.0259L13.997 9.72788L10.605 8.14934L9.98185 7.85881L9.36965 8.10129L5.96301 9.45627L5.33701 9.70503L5.55114 9.2791L6.52885 7.34386L7.79731 4.82962L10.2344 0L12.4345 5.00512L13.5683 7.58605L14.4399 9.56954L14.6402 10.0259Z" fill="#009247"></path>
    <path d="M5.35978 9.97408L6.00296 10.2721L9.39502 11.8507L10.0181 12.1412L10.6304 11.8987L14.037 10.5437L14.663 10.295L14.4489 10.7209L13.4711 12.6561L12.2027 15.1704L9.76562 20L7.56552 14.9949L6.43165 12.414L5.56013 10.4305L5.35978 9.97408Z" fill="#009247"></path>
    <path d="M10.0259 5.35953L9.72788 6.00272L8.14934 9.39478L7.85881 10.0179L8.10129 10.6301L9.45627 14.0367L9.70503 14.6627L9.2791 14.4486L7.34386 13.4709L4.82962 12.2024L0 9.76538L5.00512 7.56527L7.58605 6.43141L9.56954 5.55988L10.0259 5.35953Z" fill="#009247"></path>
    <path d="M9.97408 14.6407L10.2721 13.9975L11.8507 10.6055L12.1412 9.98234L11.8987 9.37014L10.5437 5.9635L10.295 5.3375L10.7209 5.55163L12.6561 6.52934L15.1704 7.7978L20 10.2349L14.9949 12.435L12.414 13.5688L10.4305 14.4404L9.97408 14.6407Z" fill="#009247"></path>
  </symbol>
  <symbol fill="none" xmlns="http://www.w3.org/2000/svg" viewBox="0 0 26 28" id="optimal">
    <path d="M23.6175 11.5553L21.8254 15.1543L1.597 3.47539L3.72919 0.368111L23.6175 11.5553Z" fill="#CCE9DA"></path>
    <path d="M3.72851 27.0976L-0.000548339 27.0976L-0.000542402 0.372558L3.72852 0.372559L3.72851 27.0976Z" fill="#009247"></path>
    <path d="M23.6182 11.5551L23.6446 15.8689L3.76883 27.0815L1.9043 23.8521L23.6182 11.5551Z" fill="#009247"></path>
  </symbol>
  <symbol fill="none" xmlns="http://www.w3.org/2000/svg" viewBox="0 0 37 22" id="infinite">
    <path d="M34.0861 0.0972824L35.5861 2.69536L3.03125 21.4909L1.53125 18.8928L34.0861 0.0972824Z" fill="#009247"></path>
    <path d="M37 21.5036L34 21.5036L34 0.00366198L37 0.00366211L37 21.5036Z" fill="#CCE9DA"></path>
    <path d="M35.5046 18.8906L34.0046 21.4887L1.28516 2.59808L2.78516 0L35.5046 18.8906Z" fill="#CCE9DA"></path>
    <path d="M3 21.5038L-1.89347e-06 21.5038L2.86102e-06 0.00366198L3 0.00366211L3 21.5038Z" fill="#009247"></path>
  </symbol>
  <symbol fill="none" xmlns="http://www.w3.org/2000/svg" viewBox="0 0 36 17" id="basic">
    <path d="M36 14V17L0 17L0 14L36 14Z" fill="#009247"></path>
    <path opacity="0.2" d="M36 7V10L0 10L0 7L36 7Z" fill="#009247"></path>
    <path opacity="0.2" d="M36 0V3L0 3L0 0L36 0Z" fill="#009247"></path>
  </symbol>
</svg>