<svg width="157" height="54" viewBox="0 0 157 54" fill="none" xmlns="http://www.w3.org/2000/svg">
<rect x="1.67578" width="155" height="48" rx="24" transform="rotate(2 1.67578 0)" fill="white"/>
<g clip-path="url(#clip0_44_332)">
<path d="M44.8108 25.521C45.1963 14.4816 36.5604 5.2207 25.521 4.8352C14.4816 4.44969 5.22072 13.0856 4.83521 24.125C4.44971 35.1644 13.0856 44.4253 24.125 44.8108C35.1645 45.1963 44.4253 36.5604 44.8108 25.521Z" fill="#F8604A"/>
<path d="M31.3986 37.0939L27.3672 36.9531L28.0943 16.132L26.0632 16.0611C22.5976 15.94 20.8059 17.6124 20.7151 20.2108C20.6139 23.109 21.7294 24.5812 24.2673 26.4047L26.2498 27.9086L20.1728 36.668L15.5433 36.5064L21.3226 28.6033C18.2371 26.1941 16.5768 24.101 16.7083 20.3372C16.87 15.7062 20.1447 12.6524 26.241 12.8653L32.2373 13.0747L31.3986 37.0939Z" fill="white"/>
</g>
<path d="M57.4856 33.468L62.407 27.1239C61.1687 26.8605 60.2144 26.3466 59.544 25.5821C58.881 24.8178 58.5703 23.8383 58.612 22.6437C58.6442 21.7203 58.8957 20.9293 59.3663 20.2706C59.8371 19.6046 60.4859 19.099 61.3124 18.7536C62.139 18.4082 63.1092 18.255 64.2232 18.2939L69.8188 18.4893L69.2814 33.8799L66.8189 33.7939L67.0358 27.5827L64.947 27.5098L60.3658 33.5686L57.4856 33.468ZM63.9961 25.4293L67.1072 25.538L67.2834 20.4921L64.3262 20.3888C63.3441 20.3545 62.5672 20.5402 61.9953 20.9458C61.4237 21.3441 61.124 21.9426 61.0961 22.7415C61.0677 23.555 61.2947 24.1976 61.7772 24.6694C62.2597 25.1412 62.9993 25.3945 63.9961 25.4293ZM72.9545 34.0082L73.3346 23.1248L75.7531 23.2093L75.6064 27.4087L81.0591 27.5992L81.2058 23.3997L83.6243 23.4842L83.2442 34.3675L80.8257 34.2831L80.9892 29.5999L75.5366 29.4095L75.373 34.0927L72.9545 34.0082ZM94.5144 34.7611L94.8246 25.8785L90.4273 25.725L90.377 27.1651C90.3424 28.1545 90.2526 29.0465 90.1074 29.8413C89.9623 30.6361 89.7288 31.3323 89.4071 31.9301C89.0856 32.5206 88.6468 33.0043 88.0907 33.3811C87.5418 33.7581 86.8465 34.0237 86.0046 34.1778L85.4682 32.519C86.1703 32.3748 86.7053 32.0779 87.0732 31.6285C87.4411 31.1791 87.6969 30.579 87.8405 29.8282C87.9917 29.0703 88.086 28.1564 88.1234 27.0864L88.2435 23.6455L97.313 23.9622L96.9329 34.8456L94.5144 34.7611ZM85.2858 37.7408L85.4682 32.519L86.9579 32.7251L87.3397 32.5073L99.1905 32.9212L99.0054 38.2199L96.7958 38.1428L96.911 34.8448L87.6106 34.52L87.4955 37.818L85.2858 37.7408ZM106.039 35.4938C104.867 35.4528 103.845 35.1787 102.975 34.6713C102.105 34.1566 101.436 33.4582 100.968 32.576C100.507 31.694 100.297 30.6814 100.337 29.5381C100.366 28.7026 100.536 27.9381 100.846 27.2445C101.157 26.5436 101.581 25.942 102.12 25.4398C102.658 24.9377 103.281 24.5558 103.987 24.2943C104.7 24.0331 105.471 23.9169 106.3 23.9458C107.201 23.9773 107.998 24.1665 108.69 24.5136C109.383 24.8533 109.95 25.317 110.392 25.9048C110.841 26.4928 111.147 27.175 111.311 27.9511C111.482 28.7202 111.486 29.5496 111.323 30.4391L102.638 30.1358C102.601 30.7876 102.724 31.3642 103.007 31.8657C103.291 32.3599 103.706 32.7523 104.254 33.043C104.809 33.3338 105.467 33.4926 106.229 33.5192C106.845 33.5407 107.442 33.4698 108.02 33.3065C108.606 33.1362 109.139 32.876 109.621 32.526L110.495 34.2955C110.133 34.5691 109.699 34.7997 109.194 34.9875C108.689 35.168 108.163 35.3001 107.617 35.3838C107.071 35.4748 106.545 35.5114 106.039 35.4938ZM102.843 28.3599L109.011 28.5752C109.017 27.7536 108.776 27.0995 108.287 26.6128C107.805 26.1263 107.102 25.867 106.179 25.8347C105.284 25.8035 104.532 26.0121 103.922 26.4604C103.32 26.9089 102.96 27.5421 102.843 28.3599ZM120.898 35.6824L117.494 29.774L121.025 24.7902L123.608 24.8804L120.103 29.7551L123.789 35.7834L120.898 35.6824ZM113.664 35.4298L114.044 24.5465L116.463 24.6309L116.316 28.8303L119.592 28.9448L119.522 30.9455L116.246 30.8311L116.083 35.5143L113.664 35.4298ZM130.689 36.3545C129.546 36.3146 128.536 36.0299 127.659 35.5003C126.782 34.9634 126.103 34.2535 125.62 33.3708C125.145 32.481 124.926 31.4828 124.965 30.3761C124.994 29.5406 125.171 28.78 125.496 28.0943C125.821 27.4012 126.268 26.8041 126.835 26.3029C127.403 25.8018 128.062 25.4212 128.812 25.1612C129.57 24.9015 130.385 24.7869 131.257 24.8173C131.99 24.8429 132.664 24.9655 133.28 25.1852C133.904 25.3977 134.473 25.7148 134.986 26.1363L133.756 27.9425C133.43 27.6302 133.049 27.3931 132.614 27.2312C132.187 27.0695 131.728 26.9801 131.237 26.9629C130.475 26.9363 129.814 27.0563 129.254 27.323C128.695 27.5896 128.251 27.9887 127.925 28.5203C127.605 29.0448 127.433 29.6882 127.406 30.4504C127.366 31.5863 127.665 32.4883 128.302 33.1563C128.946 33.8245 129.84 34.1786 130.984 34.2185C131.526 34.2375 132.042 34.1564 132.533 33.9755C133.024 33.7871 133.436 33.5337 133.77 33.2152L134.861 35.0914C134.266 35.5109 133.609 35.8328 132.89 36.0572C132.17 36.2815 131.436 36.3806 130.689 36.3545Z" fill="#F8604A"/>
<defs>
<clipPath id="clip0_44_332">
<rect width="40" height="40" fill="white" transform="translate(5.5332 4.13721) rotate(2)"/>
</clipPath>
</defs>
</svg>
